<mxfile host="app.diagrams.net" modified="2023-10-15T05:25:52.873Z" agent="Mozilla/5.0 (Windows NT 10.0; Win64; x64) AppleWebKit/537.36 (KHTML, like Gecko) Chrome/117.0.0.0 Safari/537.36" etag="gnVzEG8Ymx7lkl7Hyv3B" version="22.0.4" type="github">
  <diagram name="Page-1" id="FukW1Y2hieaILSiu1fCh">
    <mxGraphModel dx="1811" dy="1351" grid="1" gridSize="10" guides="1" tooltips="1" connect="1" arrows="1" fold="1" page="1" pageScale="1" pageWidth="827" pageHeight="1169" math="0" shadow="0">
      <root>
        <mxCell id="0" />
        <mxCell id="1" parent="0" />
        <mxCell id="P8iXtCB2VjH7gmR6Io5S-14" value="" style="endArrow=none;html=1;rounded=0;" edge="1" parent="1">
          <mxGeometry width="50" height="50" relative="1" as="geometry">
            <mxPoint x="150" y="95" as="sourcePoint" />
            <mxPoint x="180" y="95" as="targetPoint" />
          </mxGeometry>
        </mxCell>
        <mxCell id="P8iXtCB2VjH7gmR6Io5S-15" value="" style="endArrow=none;html=1;rounded=0;" edge="1" parent="1">
          <mxGeometry width="50" height="50" relative="1" as="geometry">
            <mxPoint x="150" y="140" as="sourcePoint" />
            <mxPoint x="180" y="140" as="targetPoint" />
          </mxGeometry>
        </mxCell>
        <mxCell id="P8iXtCB2VjH7gmR6Io5S-16" value="" style="endArrow=none;html=1;rounded=0;" edge="1" parent="1">
          <mxGeometry width="50" height="50" relative="1" as="geometry">
            <mxPoint x="149.5" y="229" as="sourcePoint" />
            <mxPoint x="179.5" y="229" as="targetPoint" />
          </mxGeometry>
        </mxCell>
        <mxCell id="P8iXtCB2VjH7gmR6Io5S-17" value="" style="endArrow=none;html=1;rounded=0;exitX=1;exitY=0.5;exitDx=0;exitDy=0;" edge="1" parent="1">
          <mxGeometry width="50" height="50" relative="1" as="geometry">
            <mxPoint x="150" y="280" as="sourcePoint" />
            <mxPoint x="180" y="280" as="targetPoint" />
          </mxGeometry>
        </mxCell>
        <mxCell id="P8iXtCB2VjH7gmR6Io5S-18" value="" style="endArrow=none;html=1;rounded=0;" edge="1" parent="1">
          <mxGeometry width="50" height="50" relative="1" as="geometry">
            <mxPoint x="150" y="185.07999999999998" as="sourcePoint" />
            <mxPoint x="180" y="184.57999999999998" as="targetPoint" />
          </mxGeometry>
        </mxCell>
        <mxCell id="P8iXtCB2VjH7gmR6Io5S-19" value="" style="endArrow=none;html=1;rounded=0;" edge="1" parent="1">
          <mxGeometry width="50" height="50" relative="1" as="geometry">
            <mxPoint x="180" y="280" as="sourcePoint" />
            <mxPoint x="180" y="20" as="targetPoint" />
          </mxGeometry>
        </mxCell>
        <mxCell id="P8iXtCB2VjH7gmR6Io5S-20" value="" style="ellipse;whiteSpace=wrap;html=1;aspect=fixed;fillColor=#000000;" vertex="1" parent="1">
          <mxGeometry x="130" y="10" width="20" height="20" as="geometry" />
        </mxCell>
        <mxCell id="P8iXtCB2VjH7gmR6Io5S-21" value="Numero aviao" style="text;html=1;align=center;verticalAlign=middle;resizable=0;points=[];autosize=1;strokeColor=none;fillColor=none;" vertex="1" parent="1">
          <mxGeometry x="40" y="80" width="100" height="30" as="geometry" />
        </mxCell>
        <mxCell id="P8iXtCB2VjH7gmR6Io5S-22" value="" style="ellipse;whiteSpace=wrap;html=1;aspect=fixed;" vertex="1" parent="1">
          <mxGeometry x="130" y="85" width="20" height="20" as="geometry" />
        </mxCell>
        <mxCell id="P8iXtCB2VjH7gmR6Io5S-23" value="Cidade origem" style="text;html=1;align=center;verticalAlign=middle;resizable=0;points=[];autosize=1;strokeColor=none;fillColor=none;" vertex="1" parent="1">
          <mxGeometry x="37" y="125" width="100" height="30" as="geometry" />
        </mxCell>
        <mxCell id="P8iXtCB2VjH7gmR6Io5S-24" value="" style="ellipse;whiteSpace=wrap;html=1;aspect=fixed;" vertex="1" parent="1">
          <mxGeometry x="130" y="220" width="20" height="20" as="geometry" />
        </mxCell>
        <mxCell id="P8iXtCB2VjH7gmR6Io5S-25" value="" style="ellipse;whiteSpace=wrap;html=1;aspect=fixed;" vertex="1" parent="1">
          <mxGeometry x="130" y="175" width="20" height="20" as="geometry" />
        </mxCell>
        <mxCell id="P8iXtCB2VjH7gmR6Io5S-26" value="" style="ellipse;whiteSpace=wrap;html=1;aspect=fixed;" vertex="1" parent="1">
          <mxGeometry x="130" y="130" width="20" height="20" as="geometry" />
        </mxCell>
        <mxCell id="P8iXtCB2VjH7gmR6Io5S-27" value="Cidade destino" style="text;html=1;align=center;verticalAlign=middle;resizable=0;points=[];autosize=1;strokeColor=none;fillColor=none;" vertex="1" parent="1">
          <mxGeometry x="37" y="170" width="100" height="30" as="geometry" />
        </mxCell>
        <mxCell id="P8iXtCB2VjH7gmR6Io5S-28" value="Data voo" style="text;html=1;align=center;verticalAlign=middle;resizable=0;points=[];autosize=1;strokeColor=none;fillColor=none;" vertex="1" parent="1">
          <mxGeometry x="67" y="215" width="70" height="30" as="geometry" />
        </mxCell>
        <mxCell id="P8iXtCB2VjH7gmR6Io5S-30" value="Hora Voo" style="text;html=1;align=center;verticalAlign=middle;resizable=0;points=[];autosize=1;strokeColor=none;fillColor=none;" vertex="1" parent="1">
          <mxGeometry x="64" y="265" width="70" height="30" as="geometry" />
        </mxCell>
        <mxCell id="P8iXtCB2VjH7gmR6Io5S-33" value="" style="ellipse;whiteSpace=wrap;html=1;aspect=fixed;" vertex="1" parent="1">
          <mxGeometry x="130" y="268" width="20" height="20" as="geometry" />
        </mxCell>
        <mxCell id="P8iXtCB2VjH7gmR6Io5S-35" value="" style="endArrow=none;html=1;rounded=0;" edge="1" parent="1">
          <mxGeometry width="50" height="50" relative="1" as="geometry">
            <mxPoint x="150" y="21" as="sourcePoint" />
            <mxPoint x="190" y="20.5" as="targetPoint" />
          </mxGeometry>
        </mxCell>
        <mxCell id="P8iXtCB2VjH7gmR6Io5S-36" value="" style="endArrow=none;html=1;rounded=0;exitX=1;exitY=0.5;exitDx=0;exitDy=0;" edge="1" parent="1">
          <mxGeometry width="50" height="50" relative="1" as="geometry">
            <mxPoint x="190" y="20.5" as="sourcePoint" />
            <mxPoint x="240" y="21" as="targetPoint" />
          </mxGeometry>
        </mxCell>
        <mxCell id="P8iXtCB2VjH7gmR6Io5S-37" value="Voo" style="rounded=0;whiteSpace=wrap;html=1;" vertex="1" parent="1">
          <mxGeometry x="240" y="15" width="120" height="60" as="geometry" />
        </mxCell>
        <mxCell id="P8iXtCB2VjH7gmR6Io5S-38" value="" style="endArrow=none;html=1;rounded=0;entryX=0.092;entryY=1.017;entryDx=0;entryDy=0;entryPerimeter=0;exitX=0.5;exitY=0;exitDx=0;exitDy=0;" edge="1" parent="1">
          <mxGeometry width="50" height="50" relative="1" as="geometry">
            <mxPoint x="299.5" y="200" as="sourcePoint" />
            <mxPoint x="300.5" y="76" as="targetPoint" />
          </mxGeometry>
        </mxCell>
        <mxCell id="P8iXtCB2VjH7gmR6Io5S-39" value="Possui" style="rhombus;whiteSpace=wrap;html=1;" vertex="1" parent="1">
          <mxGeometry x="236.5" y="200" width="127" height="70" as="geometry" />
        </mxCell>
        <mxCell id="P8iXtCB2VjH7gmR6Io5S-40" value="" style="endArrow=none;html=1;rounded=0;entryX=0.092;entryY=1.017;entryDx=0;entryDy=0;entryPerimeter=0;" edge="1" parent="1">
          <mxGeometry width="50" height="50" relative="1" as="geometry">
            <mxPoint x="299.59000000000003" y="400" as="sourcePoint" />
            <mxPoint x="299.5" y="270" as="targetPoint" />
          </mxGeometry>
        </mxCell>
        <mxCell id="P8iXtCB2VjH7gmR6Io5S-41" value="Assento" style="rounded=0;whiteSpace=wrap;html=1;" vertex="1" parent="1">
          <mxGeometry x="240" y="400" width="120" height="60" as="geometry" />
        </mxCell>
        <mxCell id="P8iXtCB2VjH7gmR6Io5S-42" value="" style="endArrow=none;html=1;rounded=0;exitX=1;exitY=0.5;exitDx=0;exitDy=0;" edge="1" parent="1">
          <mxGeometry width="50" height="50" relative="1" as="geometry">
            <mxPoint x="280" y="529.5" as="sourcePoint" />
            <mxPoint x="310" y="529.5" as="targetPoint" />
          </mxGeometry>
        </mxCell>
        <mxCell id="P8iXtCB2VjH7gmR6Io5S-43" value="" style="endArrow=none;html=1;rounded=0;exitX=1;exitY=0.5;exitDx=0;exitDy=0;" edge="1" parent="1">
          <mxGeometry width="50" height="50" relative="1" as="geometry">
            <mxPoint x="280" y="489.5" as="sourcePoint" />
            <mxPoint x="310" y="489.5" as="targetPoint" />
          </mxGeometry>
        </mxCell>
        <mxCell id="P8iXtCB2VjH7gmR6Io5S-44" value="" style="ellipse;whiteSpace=wrap;html=1;aspect=fixed;fillColor=#000000;" vertex="1" parent="1">
          <mxGeometry x="260" y="480" width="20" height="20" as="geometry" />
        </mxCell>
        <mxCell id="P8iXtCB2VjH7gmR6Io5S-45" value="" style="ellipse;whiteSpace=wrap;html=1;aspect=fixed;" vertex="1" parent="1">
          <mxGeometry x="260" y="520" width="20" height="20" as="geometry" />
        </mxCell>
        <mxCell id="P8iXtCB2VjH7gmR6Io5S-46" value="Id &lt;b&gt;(PK)&lt;/b&gt;" style="text;html=1;align=center;verticalAlign=middle;resizable=0;points=[];autosize=1;strokeColor=none;fillColor=none;" vertex="1" parent="1">
          <mxGeometry x="200" y="475" width="60" height="30" as="geometry" />
        </mxCell>
        <mxCell id="P8iXtCB2VjH7gmR6Io5S-48" value="" style="endArrow=none;html=1;rounded=0;" edge="1" parent="1">
          <mxGeometry width="50" height="50" relative="1" as="geometry">
            <mxPoint x="310" y="530" as="sourcePoint" />
            <mxPoint x="310" y="460" as="targetPoint" />
            <Array as="points">
              <mxPoint x="310.42" y="495" />
            </Array>
          </mxGeometry>
        </mxCell>
        <mxCell id="P8iXtCB2VjH7gmR6Io5S-49" value="Quantidade" style="text;html=1;align=center;verticalAlign=middle;resizable=0;points=[];autosize=1;strokeColor=none;fillColor=none;" vertex="1" parent="1">
          <mxGeometry x="179" y="517" width="90" height="30" as="geometry" />
        </mxCell>
        <mxCell id="P8iXtCB2VjH7gmR6Io5S-50" value="Passageiro" style="rounded=0;whiteSpace=wrap;html=1;" vertex="1" parent="1">
          <mxGeometry x="630" y="15" width="120" height="60" as="geometry" />
        </mxCell>
        <mxCell id="P8iXtCB2VjH7gmR6Io5S-51" value="" style="endArrow=none;html=1;rounded=0;" edge="1" parent="1">
          <mxGeometry width="50" height="50" relative="1" as="geometry">
            <mxPoint x="750" y="20" as="sourcePoint" />
            <mxPoint x="860" y="20" as="targetPoint" />
          </mxGeometry>
        </mxCell>
        <mxCell id="P8iXtCB2VjH7gmR6Io5S-52" value="" style="endArrow=none;html=1;rounded=0;" edge="1" parent="1">
          <mxGeometry width="50" height="50" relative="1" as="geometry">
            <mxPoint x="820" y="20" as="sourcePoint" />
            <mxPoint x="820" y="230" as="targetPoint" />
          </mxGeometry>
        </mxCell>
        <mxCell id="P8iXtCB2VjH7gmR6Io5S-53" value="" style="ellipse;whiteSpace=wrap;html=1;aspect=fixed;fillColor=#000000;" vertex="1" parent="1">
          <mxGeometry x="853" y="10" width="20" height="20" as="geometry" />
        </mxCell>
        <mxCell id="P8iXtCB2VjH7gmR6Io5S-54" value="CPF &lt;b&gt;(PK)&lt;/b&gt;" style="text;html=1;align=center;verticalAlign=middle;resizable=0;points=[];autosize=1;strokeColor=none;fillColor=none;" vertex="1" parent="1">
          <mxGeometry x="865" y="5" width="80" height="30" as="geometry" />
        </mxCell>
        <mxCell id="P8iXtCB2VjH7gmR6Io5S-55" value="" style="endArrow=none;html=1;rounded=0;" edge="1" parent="1">
          <mxGeometry width="50" height="50" relative="1" as="geometry">
            <mxPoint x="820" y="139.57999999999998" as="sourcePoint" />
            <mxPoint x="850" y="139.57999999999998" as="targetPoint" />
          </mxGeometry>
        </mxCell>
        <mxCell id="P8iXtCB2VjH7gmR6Io5S-56" value="" style="endArrow=none;html=1;rounded=0;" edge="1" parent="1">
          <mxGeometry width="50" height="50" relative="1" as="geometry">
            <mxPoint x="821" y="184.57999999999998" as="sourcePoint" />
            <mxPoint x="851" y="184.57999999999998" as="targetPoint" />
          </mxGeometry>
        </mxCell>
        <mxCell id="P8iXtCB2VjH7gmR6Io5S-57" value="" style="endArrow=none;html=1;rounded=0;exitX=1;exitY=0.5;exitDx=0;exitDy=0;" edge="1" parent="1">
          <mxGeometry width="50" height="50" relative="1" as="geometry">
            <mxPoint x="820" y="95.16999999999999" as="sourcePoint" />
            <mxPoint x="850" y="95.16999999999999" as="targetPoint" />
          </mxGeometry>
        </mxCell>
        <mxCell id="P8iXtCB2VjH7gmR6Io5S-58" value="" style="endArrow=none;html=1;rounded=0;" edge="1" parent="1">
          <mxGeometry width="50" height="50" relative="1" as="geometry">
            <mxPoint x="820" y="229.17" as="sourcePoint" />
            <mxPoint x="850" y="229.17" as="targetPoint" />
          </mxGeometry>
        </mxCell>
        <mxCell id="P8iXtCB2VjH7gmR6Io5S-59" value="" style="ellipse;whiteSpace=wrap;html=1;aspect=fixed;" vertex="1" parent="1">
          <mxGeometry x="845" y="220" width="20" height="20" as="geometry" />
        </mxCell>
        <mxCell id="P8iXtCB2VjH7gmR6Io5S-60" value="" style="ellipse;whiteSpace=wrap;html=1;aspect=fixed;" vertex="1" parent="1">
          <mxGeometry x="845" y="175" width="20" height="20" as="geometry" />
        </mxCell>
        <mxCell id="P8iXtCB2VjH7gmR6Io5S-61" value="" style="ellipse;whiteSpace=wrap;html=1;aspect=fixed;" vertex="1" parent="1">
          <mxGeometry x="845" y="130" width="20" height="20" as="geometry" />
        </mxCell>
        <mxCell id="P8iXtCB2VjH7gmR6Io5S-62" value="" style="ellipse;whiteSpace=wrap;html=1;aspect=fixed;" vertex="1" parent="1">
          <mxGeometry x="845" y="85" width="20" height="20" as="geometry" />
        </mxCell>
        <mxCell id="P8iXtCB2VjH7gmR6Io5S-63" value="Nome" style="text;html=1;align=center;verticalAlign=middle;resizable=0;points=[];autosize=1;strokeColor=none;fillColor=none;" vertex="1" parent="1">
          <mxGeometry x="853" y="80" width="60" height="30" as="geometry" />
        </mxCell>
        <mxCell id="P8iXtCB2VjH7gmR6Io5S-64" value="Telefone" style="text;html=1;align=center;verticalAlign=middle;resizable=0;points=[];autosize=1;strokeColor=none;fillColor=none;" vertex="1" parent="1">
          <mxGeometry x="854" y="125" width="70" height="30" as="geometry" />
        </mxCell>
        <mxCell id="P8iXtCB2VjH7gmR6Io5S-65" value="E-mail" style="text;html=1;align=center;verticalAlign=middle;resizable=0;points=[];autosize=1;strokeColor=none;fillColor=none;" vertex="1" parent="1">
          <mxGeometry x="854" y="171" width="60" height="30" as="geometry" />
        </mxCell>
        <mxCell id="P8iXtCB2VjH7gmR6Io5S-66" value="Endereco" style="text;html=1;align=center;verticalAlign=middle;resizable=0;points=[];autosize=1;strokeColor=none;fillColor=none;" vertex="1" parent="1">
          <mxGeometry x="857" y="217" width="70" height="30" as="geometry" />
        </mxCell>
        <mxCell id="P8iXtCB2VjH7gmR6Io5S-67" value="" style="endArrow=none;html=1;rounded=0;exitX=1;exitY=0.5;exitDx=0;exitDy=0;" edge="1" parent="1">
          <mxGeometry width="50" height="50" relative="1" as="geometry">
            <mxPoint x="894" y="265" as="sourcePoint" />
            <mxPoint x="924" y="265" as="targetPoint" />
          </mxGeometry>
        </mxCell>
        <mxCell id="P8iXtCB2VjH7gmR6Io5S-68" value="" style="endArrow=none;html=1;rounded=0;exitX=1;exitY=0.5;exitDx=0;exitDy=0;" edge="1" parent="1">
          <mxGeometry width="50" height="50" relative="1" as="geometry">
            <mxPoint x="894" y="300" as="sourcePoint" />
            <mxPoint x="924" y="300" as="targetPoint" />
          </mxGeometry>
        </mxCell>
        <mxCell id="P8iXtCB2VjH7gmR6Io5S-69" value="" style="endArrow=none;html=1;rounded=0;exitX=1;exitY=0.5;exitDx=0;exitDy=0;" edge="1" parent="1">
          <mxGeometry width="50" height="50" relative="1" as="geometry">
            <mxPoint x="894" y="335" as="sourcePoint" />
            <mxPoint x="924" y="335" as="targetPoint" />
          </mxGeometry>
        </mxCell>
        <mxCell id="P8iXtCB2VjH7gmR6Io5S-70" value="" style="endArrow=none;html=1;rounded=0;exitX=1;exitY=0.5;exitDx=0;exitDy=0;" edge="1" parent="1">
          <mxGeometry width="50" height="50" relative="1" as="geometry">
            <mxPoint x="894" y="408" as="sourcePoint" />
            <mxPoint x="924" y="408" as="targetPoint" />
          </mxGeometry>
        </mxCell>
        <mxCell id="P8iXtCB2VjH7gmR6Io5S-71" value="" style="endArrow=none;html=1;rounded=0;exitX=1;exitY=0.5;exitDx=0;exitDy=0;" edge="1" parent="1">
          <mxGeometry width="50" height="50" relative="1" as="geometry">
            <mxPoint x="895" y="374" as="sourcePoint" />
            <mxPoint x="925" y="374" as="targetPoint" />
          </mxGeometry>
        </mxCell>
        <mxCell id="P8iXtCB2VjH7gmR6Io5S-72" value="" style="endArrow=none;html=1;rounded=0;exitX=1;exitY=0.5;exitDx=0;exitDy=0;" edge="1" parent="1">
          <mxGeometry width="50" height="50" relative="1" as="geometry">
            <mxPoint x="894" y="438.58" as="sourcePoint" />
            <mxPoint x="924" y="438.58" as="targetPoint" />
          </mxGeometry>
        </mxCell>
        <mxCell id="P8iXtCB2VjH7gmR6Io5S-73" value="" style="ellipse;whiteSpace=wrap;html=1;aspect=fixed;" vertex="1" parent="1">
          <mxGeometry x="925" y="430" width="20" height="20" as="geometry" />
        </mxCell>
        <mxCell id="P8iXtCB2VjH7gmR6Io5S-74" value="" style="ellipse;whiteSpace=wrap;html=1;aspect=fixed;" vertex="1" parent="1">
          <mxGeometry x="925" y="396" width="20" height="20" as="geometry" />
        </mxCell>
        <mxCell id="P8iXtCB2VjH7gmR6Io5S-75" value="" style="ellipse;whiteSpace=wrap;html=1;aspect=fixed;" vertex="1" parent="1">
          <mxGeometry x="924" y="365" width="20" height="20" as="geometry" />
        </mxCell>
        <mxCell id="P8iXtCB2VjH7gmR6Io5S-76" value="" style="ellipse;whiteSpace=wrap;html=1;aspect=fixed;" vertex="1" parent="1">
          <mxGeometry x="925" y="325" width="20" height="20" as="geometry" />
        </mxCell>
        <mxCell id="P8iXtCB2VjH7gmR6Io5S-77" value="" style="ellipse;whiteSpace=wrap;html=1;aspect=fixed;" vertex="1" parent="1">
          <mxGeometry x="924" y="290" width="20" height="20" as="geometry" />
        </mxCell>
        <mxCell id="P8iXtCB2VjH7gmR6Io5S-78" value="" style="ellipse;whiteSpace=wrap;html=1;aspect=fixed;" vertex="1" parent="1">
          <mxGeometry x="924" y="255" width="20" height="20" as="geometry" />
        </mxCell>
        <mxCell id="P8iXtCB2VjH7gmR6Io5S-79" value="Numero" style="text;html=1;align=center;verticalAlign=middle;resizable=0;points=[];autosize=1;strokeColor=none;fillColor=none;" vertex="1" parent="1">
          <mxGeometry x="935" y="285" width="70" height="30" as="geometry" />
        </mxCell>
        <mxCell id="P8iXtCB2VjH7gmR6Io5S-80" value="Complemento" style="text;html=1;align=center;verticalAlign=middle;resizable=0;points=[];autosize=1;strokeColor=none;fillColor=none;" vertex="1" parent="1">
          <mxGeometry x="935" y="320" width="100" height="30" as="geometry" />
        </mxCell>
        <mxCell id="P8iXtCB2VjH7gmR6Io5S-81" value="Bairro" style="text;html=1;align=center;verticalAlign=middle;resizable=0;points=[];autosize=1;strokeColor=none;fillColor=none;" vertex="1" parent="1">
          <mxGeometry x="935" y="360" width="60" height="30" as="geometry" />
        </mxCell>
        <mxCell id="P8iXtCB2VjH7gmR6Io5S-82" value="CEP" style="text;html=1;align=center;verticalAlign=middle;resizable=0;points=[];autosize=1;strokeColor=none;fillColor=none;" vertex="1" parent="1">
          <mxGeometry x="937" y="391" width="50" height="30" as="geometry" />
        </mxCell>
        <mxCell id="P8iXtCB2VjH7gmR6Io5S-83" value="Cidade" style="text;html=1;align=center;verticalAlign=middle;resizable=0;points=[];autosize=1;strokeColor=none;fillColor=none;" vertex="1" parent="1">
          <mxGeometry x="937" y="425" width="60" height="30" as="geometry" />
        </mxCell>
        <mxCell id="P8iXtCB2VjH7gmR6Io5S-84" value="" style="endArrow=none;html=1;rounded=0;exitX=1;exitY=0.5;exitDx=0;exitDy=0;" edge="1" parent="1">
          <mxGeometry width="50" height="50" relative="1" as="geometry">
            <mxPoint x="895" y="480" as="sourcePoint" />
            <mxPoint x="925" y="480" as="targetPoint" />
          </mxGeometry>
        </mxCell>
        <mxCell id="P8iXtCB2VjH7gmR6Io5S-85" value="" style="ellipse;whiteSpace=wrap;html=1;aspect=fixed;" vertex="1" parent="1">
          <mxGeometry x="925" y="470" width="20" height="20" as="geometry" />
        </mxCell>
        <mxCell id="P8iXtCB2VjH7gmR6Io5S-86" value="Estado" style="text;html=1;align=center;verticalAlign=middle;resizable=0;points=[];autosize=1;strokeColor=none;fillColor=none;" vertex="1" parent="1">
          <mxGeometry x="937" y="466" width="60" height="30" as="geometry" />
        </mxCell>
        <mxCell id="P8iXtCB2VjH7gmR6Io5S-87" value="Rua" style="text;html=1;align=center;verticalAlign=middle;resizable=0;points=[];autosize=1;strokeColor=none;fillColor=none;" vertex="1" parent="1">
          <mxGeometry x="935" y="248" width="50" height="30" as="geometry" />
        </mxCell>
        <mxCell id="P8iXtCB2VjH7gmR6Io5S-88" value="" style="endArrow=none;html=1;rounded=0;" edge="1" parent="1">
          <mxGeometry width="50" height="50" relative="1" as="geometry">
            <mxPoint x="894" y="240" as="sourcePoint" />
            <mxPoint x="894" y="480" as="targetPoint" />
          </mxGeometry>
        </mxCell>
        <mxCell id="P8iXtCB2VjH7gmR6Io5S-92" value="" style="endArrow=none;html=1;rounded=0;" edge="1" parent="1">
          <mxGeometry width="50" height="50" relative="1" as="geometry">
            <mxPoint x="490" y="440" as="sourcePoint" />
            <mxPoint x="490" y="25" as="targetPoint" />
          </mxGeometry>
        </mxCell>
        <mxCell id="P8iXtCB2VjH7gmR6Io5S-122" value="" style="endArrow=none;html=1;rounded=0;" edge="1" parent="1">
          <mxGeometry width="50" height="50" relative="1" as="geometry">
            <mxPoint x="360" y="440" as="sourcePoint" />
            <mxPoint x="490" y="440" as="targetPoint" />
          </mxGeometry>
        </mxCell>
        <mxCell id="P8iXtCB2VjH7gmR6Io5S-123" value="" style="endArrow=none;html=1;rounded=0;entryX=0;entryY=0.25;entryDx=0;entryDy=0;" edge="1" parent="1">
          <mxGeometry width="50" height="50" relative="1" as="geometry">
            <mxPoint x="490" y="26" as="sourcePoint" />
            <mxPoint x="630" y="26" as="targetPoint" />
          </mxGeometry>
        </mxCell>
        <mxCell id="P8iXtCB2VjH7gmR6Io5S-125" value="" style="endArrow=none;html=1;rounded=0;exitX=1;exitY=0.5;exitDx=0;exitDy=0;" edge="1" parent="1">
          <mxGeometry width="50" height="50" relative="1" as="geometry">
            <mxPoint x="453" y="273.29" as="sourcePoint" />
            <mxPoint x="483" y="273.29" as="targetPoint" />
          </mxGeometry>
        </mxCell>
        <mxCell id="P8iXtCB2VjH7gmR6Io5S-127" value="" style="ellipse;whiteSpace=wrap;html=1;aspect=fixed;" vertex="1" parent="1">
          <mxGeometry x="440" y="265" width="20" height="20" as="geometry" />
        </mxCell>
        <mxCell id="P8iXtCB2VjH7gmR6Io5S-128" value="" style="ellipse;whiteSpace=wrap;html=1;aspect=fixed;" vertex="1" parent="1">
          <mxGeometry x="400" y="245" width="20" height="20" as="geometry" />
        </mxCell>
        <mxCell id="P8iXtCB2VjH7gmR6Io5S-129" value="Data Reserva" style="text;html=1;align=center;verticalAlign=middle;resizable=0;points=[];autosize=1;strokeColor=none;fillColor=none;" vertex="1" parent="1">
          <mxGeometry x="320" y="260" width="100" height="30" as="geometry" />
        </mxCell>
        <mxCell id="P8iXtCB2VjH7gmR6Io5S-132" value="" style="endArrow=none;html=1;rounded=0;exitX=1;exitY=0.5;exitDx=0;exitDy=0;" edge="1" parent="1">
          <mxGeometry width="50" height="50" relative="1" as="geometry">
            <mxPoint x="420" y="255" as="sourcePoint" />
            <mxPoint x="450" y="255" as="targetPoint" />
          </mxGeometry>
        </mxCell>
        <mxCell id="P8iXtCB2VjH7gmR6Io5S-133" value="Hora Reserva" style="text;html=1;align=center;verticalAlign=middle;resizable=0;points=[];autosize=1;strokeColor=none;fillColor=none;" vertex="1" parent="1">
          <mxGeometry x="370" y="280" width="100" height="30" as="geometry" />
        </mxCell>
        <mxCell id="P8iXtCB2VjH7gmR6Io5S-134" value="Possui" style="rhombus;whiteSpace=wrap;html=1;" vertex="1" parent="1">
          <mxGeometry x="625" y="222" width="150" height="80" as="geometry" />
        </mxCell>
        <mxCell id="P8iXtCB2VjH7gmR6Io5S-135" value="" style="ellipse;whiteSpace=wrap;html=1;aspect=fixed;" vertex="1" parent="1">
          <mxGeometry x="720" y="522" width="20" height="20" as="geometry" />
        </mxCell>
        <mxCell id="P8iXtCB2VjH7gmR6Io5S-137" value="Nome" style="text;html=1;align=center;verticalAlign=middle;resizable=0;points=[];autosize=1;strokeColor=none;fillColor=none;" vertex="1" parent="1">
          <mxGeometry x="671" y="480" width="60" height="30" as="geometry" />
        </mxCell>
        <mxCell id="P8iXtCB2VjH7gmR6Io5S-138" value="Data Nascimento" style="text;html=1;align=center;verticalAlign=middle;resizable=0;points=[];autosize=1;strokeColor=none;fillColor=none;" vertex="1" parent="1">
          <mxGeometry x="611" y="517" width="120" height="30" as="geometry" />
        </mxCell>
        <mxCell id="P8iXtCB2VjH7gmR6Io5S-139" value="" style="endArrow=none;html=1;rounded=0;entryX=0.092;entryY=1.017;entryDx=0;entryDy=0;entryPerimeter=0;" edge="1" parent="1">
          <mxGeometry width="50" height="50" relative="1" as="geometry">
            <mxPoint x="700.18" y="455" as="sourcePoint" />
            <mxPoint x="700" y="304" as="targetPoint" />
          </mxGeometry>
        </mxCell>
        <mxCell id="P8iXtCB2VjH7gmR6Io5S-140" value="" style="endArrow=none;html=1;rounded=0;entryX=0;entryY=0.75;entryDx=0;entryDy=0;" edge="1" parent="1" target="P8iXtCB2VjH7gmR6Io5S-149">
          <mxGeometry width="50" height="50" relative="1" as="geometry">
            <mxPoint x="700" y="455" as="sourcePoint" />
            <mxPoint x="740" y="455" as="targetPoint" />
            <Array as="points" />
          </mxGeometry>
        </mxCell>
        <mxCell id="P8iXtCB2VjH7gmR6Io5S-141" value="Possui" style="rhombus;whiteSpace=wrap;html=1;" vertex="1" parent="1">
          <mxGeometry x="635" y="230.5" width="130" height="65" as="geometry" />
        </mxCell>
        <mxCell id="P8iXtCB2VjH7gmR6Io5S-142" value="" style="endArrow=none;html=1;rounded=0;entryX=0.75;entryY=1;entryDx=0;entryDy=0;exitX=0.5;exitY=0;exitDx=0;exitDy=0;" edge="1" parent="1" source="P8iXtCB2VjH7gmR6Io5S-134">
          <mxGeometry width="50" height="50" relative="1" as="geometry">
            <mxPoint x="701" y="210" as="sourcePoint" />
            <mxPoint x="700" y="75" as="targetPoint" />
          </mxGeometry>
        </mxCell>
        <mxCell id="P8iXtCB2VjH7gmR6Io5S-148" value="" style="ellipse;whiteSpace=wrap;html=1;aspect=fixed;" vertex="1" parent="1">
          <mxGeometry x="720" y="485" width="20" height="20" as="geometry" />
        </mxCell>
        <mxCell id="P8iXtCB2VjH7gmR6Io5S-149" value="Dependente" style="rounded=0;whiteSpace=wrap;html=1;" vertex="1" parent="1">
          <mxGeometry x="760" y="410" width="120" height="60" as="geometry" />
        </mxCell>
        <mxCell id="P8iXtCB2VjH7gmR6Io5S-150" value="Dependente" style="rounded=0;whiteSpace=wrap;html=1;" vertex="1" parent="1">
          <mxGeometry x="765" y="415" width="110" height="50" as="geometry" />
        </mxCell>
        <mxCell id="P8iXtCB2VjH7gmR6Io5S-151" value="" style="endArrow=none;html=1;rounded=0;" edge="1" parent="1">
          <mxGeometry width="50" height="50" relative="1" as="geometry">
            <mxPoint x="800" y="530.83" as="sourcePoint" />
            <mxPoint x="800" y="470" as="targetPoint" />
          </mxGeometry>
        </mxCell>
        <mxCell id="P8iXtCB2VjH7gmR6Io5S-152" value="" style="endArrow=none;html=1;rounded=0;exitX=1;exitY=0.5;exitDx=0;exitDy=0;" edge="1" parent="1" source="P8iXtCB2VjH7gmR6Io5S-135">
          <mxGeometry width="50" height="50" relative="1" as="geometry">
            <mxPoint x="760" y="530" as="sourcePoint" />
            <mxPoint x="800" y="530" as="targetPoint" />
          </mxGeometry>
        </mxCell>
        <mxCell id="P8iXtCB2VjH7gmR6Io5S-153" value="" style="endArrow=none;html=1;rounded=0;exitX=1;exitY=0.5;exitDx=0;exitDy=0;" edge="1" parent="1" source="P8iXtCB2VjH7gmR6Io5S-148">
          <mxGeometry width="50" height="50" relative="1" as="geometry">
            <mxPoint x="800" y="556.83" as="sourcePoint" />
            <mxPoint x="800" y="496" as="targetPoint" />
          </mxGeometry>
        </mxCell>
        <mxCell id="P8iXtCB2VjH7gmR6Io5S-154" value="&lt;b&gt;0,N&lt;/b&gt;" style="text;html=1;align=center;verticalAlign=middle;resizable=0;points=[];autosize=1;strokeColor=none;fillColor=none;" vertex="1" parent="1">
          <mxGeometry x="241.5" y="365" width="40" height="30" as="geometry" />
        </mxCell>
        <mxCell id="P8iXtCB2VjH7gmR6Io5S-156" value="Reserva_assento" style="rhombus;whiteSpace=wrap;html=1;" vertex="1" parent="1">
          <mxGeometry x="428" y="208" width="127" height="70" as="geometry" />
        </mxCell>
        <mxCell id="P8iXtCB2VjH7gmR6Io5S-157" value="&lt;b&gt;(0,N)&lt;/b&gt;" style="text;html=1;align=center;verticalAlign=middle;resizable=0;points=[];autosize=1;strokeColor=none;fillColor=none;" vertex="1" parent="1">
          <mxGeometry x="750" y="380" width="50" height="30" as="geometry" />
        </mxCell>
        <mxCell id="P8iXtCB2VjH7gmR6Io5S-158" value="&lt;b&gt;(1,1)&lt;/b&gt;" style="text;html=1;align=center;verticalAlign=middle;resizable=0;points=[];autosize=1;strokeColor=none;fillColor=none;" vertex="1" parent="1">
          <mxGeometry x="700" y="80" width="50" height="30" as="geometry" />
        </mxCell>
        <mxCell id="P8iXtCB2VjH7gmR6Io5S-159" value="&lt;b&gt;(0,N)&lt;/b&gt;" style="text;html=1;align=center;verticalAlign=middle;resizable=0;points=[];autosize=1;strokeColor=none;fillColor=none;" vertex="1" parent="1">
          <mxGeometry x="320" y="460" width="50" height="30" as="geometry" />
        </mxCell>
        <mxCell id="P8iXtCB2VjH7gmR6Io5S-160" value="&lt;b&gt;(1,1)&lt;/b&gt;" style="text;html=1;align=center;verticalAlign=middle;resizable=0;points=[];autosize=1;strokeColor=none;fillColor=none;" vertex="1" parent="1">
          <mxGeometry x="580" y="45" width="50" height="30" as="geometry" />
        </mxCell>
        <mxCell id="P8iXtCB2VjH7gmR6Io5S-161" value="&lt;b&gt;1,1&lt;/b&gt;" style="text;html=1;align=center;verticalAlign=middle;resizable=0;points=[];autosize=1;strokeColor=none;fillColor=none;" vertex="1" parent="1">
          <mxGeometry x="241.5" y="75" width="40" height="30" as="geometry" />
        </mxCell>
      </root>
    </mxGraphModel>
  </diagram>
</mxfile>
